<svg width="126" height="50" viewBox="0 0 126 50" fill="none" xmlns="http://www.w3.org/2000/svg">
<path d="M0 33.0985V9.43652H9.06315C11.1156 9.43652 12.8798 9.76328 14.3558 10.4168C15.8317 11.0478 16.9617 11.9717 17.7458 13.1886C18.5529 14.383 18.9565 15.8365 18.9565 17.5492C18.9565 19.2168 18.5529 20.6591 17.7458 21.876C16.9617 23.0703 15.8317 23.9943 14.3558 24.6478C12.8798 25.3013 11.1156 25.6281 9.06315 25.6281H1.41828L2.55982 24.445V33.0985H0ZM2.55982 24.6478L1.41828 23.4309H8.99397C11.4154 23.4309 13.2488 22.9238 14.4941 21.9098C15.7625 20.8731 16.3967 19.4196 16.3967 17.5492C16.3967 15.6562 15.7625 14.1915 14.4941 13.1548C13.2488 12.1182 11.4154 11.5999 8.99397 11.5999H1.41828L2.55982 10.4168V24.6478ZM23.5335 33.0985V15.352H25.8858V20.1858L25.6436 19.3407C26.151 17.9886 27.0042 16.9633 28.2034 16.2647C29.4026 15.5436 30.8901 15.183 32.6658 15.183V17.5154C32.5736 17.5154 32.4813 17.5154 32.3891 17.5154C32.2968 17.4929 32.2046 17.4816 32.1123 17.4816C30.1982 17.4816 28.6993 18.0562 27.6154 19.2055C26.5315 20.3323 25.9895 21.9436 25.9895 24.0393V33.0985H23.5335ZM44.6926 33.2675C42.8015 33.2675 41.1411 32.8844 39.7113 32.1182C38.2815 31.3295 37.163 30.2591 36.3559 28.9069C35.5487 27.5323 35.1451 25.9661 35.1451 24.2084C35.1451 22.4506 35.5257 20.8957 36.2867 19.5436C37.0708 18.1915 38.1316 17.1323 39.4692 16.3661C40.8298 15.5774 42.3519 15.183 44.0353 15.183C45.7419 15.183 47.2524 15.5661 48.5669 16.3323C49.9045 17.076 50.9538 18.1351 51.7148 19.5098C52.4758 20.8619 52.8563 22.4281 52.8563 24.2084C52.8563 24.321 52.8448 24.445 52.8218 24.5802C52.8218 24.6929 52.8218 24.8168 52.8218 24.952H37.0131V23.1605H51.5072L50.5387 23.8703C50.5387 22.5858 50.2504 21.4478 49.6739 20.4562C49.1204 19.4422 48.3594 18.6534 47.3908 18.09C46.4222 17.5267 45.3037 17.245 44.0353 17.245C42.79 17.245 41.6715 17.5267 40.6799 18.09C39.6883 18.6534 38.9157 19.4422 38.3622 20.4562C37.8087 21.4703 37.532 22.6309 37.532 23.9379V24.3098C37.532 25.6619 37.8318 26.8562 38.4314 27.8929C39.0541 28.9069 39.9073 29.7069 40.9912 30.2929C42.0982 30.8562 43.355 31.1379 44.7618 31.1379C45.8687 31.1379 46.895 30.9464 47.8405 30.5633C48.8091 30.1802 49.6393 29.5943 50.3311 28.8055L51.7148 30.3605C50.9076 31.3069 49.8929 32.0281 48.6707 32.5238C47.4715 33.0196 46.1455 33.2675 44.6926 33.2675ZM62.7329 33.2675C61.2339 33.2675 59.8156 33.0647 58.4781 32.6591C57.1405 32.2309 56.0912 31.7013 55.3302 31.0703L56.4371 29.1774C57.1751 29.7182 58.1206 30.1915 59.2737 30.5971C60.4268 30.9802 61.6375 31.1717 62.9059 31.1717C64.6355 31.1717 65.8808 30.9126 66.6418 30.3943C67.4029 29.8534 67.7834 29.1436 67.7834 28.2647C67.7834 27.6112 67.5643 27.1041 67.1261 26.7436C66.711 26.3605 66.1575 26.0788 65.4657 25.8985C64.7738 25.6957 64.0013 25.5267 63.148 25.3915C62.2947 25.2562 61.4415 25.0985 60.5882 24.9182C59.758 24.7379 58.997 24.4788 58.3051 24.1407C57.6133 23.7802 57.0483 23.2957 56.6101 22.6872C56.195 22.0788 55.9874 21.2675 55.9874 20.2534C55.9874 19.2844 56.2642 18.4168 56.8176 17.6506C57.3711 16.8844 58.1783 16.2872 59.2391 15.8591C60.323 15.4084 61.6375 15.183 63.1826 15.183C64.3587 15.183 65.5349 15.3407 66.711 15.6562C67.8871 15.9492 68.8557 16.3436 69.6168 16.8393L68.5444 18.7661C67.7372 18.2253 66.8724 17.8422 65.95 17.6168C65.0275 17.3689 64.1051 17.245 63.1826 17.245C61.5452 17.245 60.3345 17.5267 59.5504 18.09C58.7894 18.6309 58.4089 19.3295 58.4089 20.1858C58.4089 20.8619 58.6164 21.3915 59.0316 21.7746C59.4697 22.1576 60.0347 22.4619 60.7266 22.6872C61.4415 22.89 62.214 23.0591 63.0442 23.1943C63.8975 23.3295 64.7393 23.4985 65.5695 23.7013C66.4227 23.8816 67.1953 24.1407 67.8871 24.4788C68.6021 24.7943 69.1671 25.2562 69.5822 25.8647C70.0203 26.4506 70.2394 27.2281 70.2394 28.1971C70.2394 29.2337 69.9396 30.1351 69.34 30.9013C68.7635 31.645 67.9102 32.2309 66.7802 32.6591C65.6732 33.0647 64.3242 33.2675 62.7329 33.2675Z" fill="#988B7A"/>
<path d="M117.85 0H82.5368C78.5566 0 75.3301 3.15292 75.3301 7.04225V42.9577C75.3301 46.8471 78.5566 50 82.5368 50H117.85C121.83 50 125.056 46.8471 125.056 42.9577V7.04225C125.056 3.15292 121.83 0 117.85 0Z" fill="#F3A249"/>
<path d="M117.85 0H82.5368C78.5566 0 75.3301 3.15292 75.3301 7.04225V42.9577C75.3301 46.8471 78.5566 50 82.5368 50H117.85C121.83 50 125.056 46.8471 125.056 42.9577V7.04225C125.056 3.15292 121.83 0 117.85 0Z" fill="#FF8500"/>
<path d="M95.2499 25.121H108.049V27.2844H95.2499V25.121ZM95.5266 37.3238H92.9668V13.6619H109.571V15.8252H95.5266V37.3238Z" fill="white"/>
</svg>
