<svg width="14" height="5" viewBox="0 0 14 5" fill="none" xmlns="http://www.w3.org/2000/svg">
<path fill-rule="evenodd" clip-rule="evenodd" d="M7.224 0.552983C7.15447 0.518142 7.07777 0.5 7 0.5C6.92223 0.5 6.84553 0.518142 6.776 0.552983L0.776001 3.55298C0.71678 3.58209 0.663905 3.62263 0.620426 3.67226C0.576947 3.7219 0.543723 3.77965 0.52267 3.84219C0.501617 3.90473 0.493151 3.97082 0.49776 4.03664C0.502369 4.10247 0.519962 4.16673 0.549525 4.22573C0.579088 4.28472 0.620035 4.33728 0.670008 4.38037C0.71998 4.42346 0.777988 4.45624 0.840688 4.47681C0.903387 4.49738 0.969538 4.50533 1.03533 4.50021C1.10111 4.49509 1.16524 4.477 1.224 4.44698L7 1.55998L12.776 4.44698C12.8348 4.477 12.8989 4.49509 12.9647 4.50021C13.0305 4.50533 13.0966 4.49738 13.1593 4.47681C13.222 4.45624 13.28 4.42346 13.33 4.38037C13.38 4.33728 13.4209 4.28472 13.4505 4.22573C13.48 4.16673 13.4976 4.10247 13.5022 4.03664C13.5069 3.97082 13.4984 3.90473 13.4773 3.84219C13.4563 3.77965 13.4231 3.7219 13.3796 3.67226C13.3361 3.62263 13.2832 3.58209 13.224 3.55298L7.224 0.552983V0.552983Z" fill="black"/>
</svg>
